Coordinates
version=1
nRows=65
nColumns=12
inDegrees=yes

Units are S.I. units (second, meters, Newtons, ...)
Angles are in degrees

endheader
time	SC_y	SC_z	SC_x	AC_y	AC_z	AC_x	GH_y	GH_z	GH_yy	EL_x	PS_y
       0.0              -33.94          8.746          77.37          36.84          -7.58          17.09          154.5          74.66          53.18          111.0          72.16
  0.006403              -33.94          8.747          77.37          36.84         -7.582          17.09          154.5          74.66          53.15          111.0          72.16
   0.01281              -33.93          8.749          77.37          36.85         -7.583          17.08          154.5          74.66          53.11          111.0          72.16
   0.01921              -33.93          8.751          77.36          36.85         -7.584          17.08          154.5          74.66          53.08          111.0          72.16
   0.02561              -33.93          8.753          77.36          36.85         -7.586          17.08          154.5          74.65          53.04          111.0          72.16
   0.03202              -33.92          8.755          77.36          36.86         -7.587          17.07          154.5          74.65           53.0          111.0          72.16
   0.03842              -33.92          8.757          77.36          36.86         -7.589          17.07          154.5          74.65          52.95          111.0          72.16
   0.04482              -33.91           8.76          77.36          36.87          -7.59          17.07          154.5          74.65           52.9          111.0          72.16
   0.05123              -33.91          8.762          77.36          36.87         -7.592          17.06          154.5          74.65          52.85          110.9          72.15
   0.05763               -33.9          8.765          77.35          36.88         -7.594          17.06          154.5          74.65           52.8          110.9          72.15
   0.06403               -33.9          8.768          77.35          36.88         -7.596          17.05          154.5          74.64          52.74          110.9          72.15
   0.07044              -33.89          8.771          77.35          36.89         -7.599          17.05          154.5          74.64          52.68          110.9          72.15
   0.07684              -33.89          8.775          77.35           36.9         -7.601          17.04          154.5          74.64          52.61          110.9          72.15
   0.08325              -33.88          8.778          77.34           36.9         -7.604          17.04          154.5          74.64          52.53          110.8          72.15
   0.08965              -33.87          8.783          77.34          36.91         -7.607          17.03          154.5          74.63          52.45          110.8          72.15
   0.09605              -33.86          8.787          77.34          36.92          -7.61          17.02          154.5          74.63          52.37          110.8          72.15
    0.1025              -33.86          8.792          77.33          36.93         -7.613          17.01          154.5          74.63          52.27          110.8          72.15
    0.1089              -33.85          8.797          77.33          36.94         -7.617           17.0          154.5          74.62          52.17          110.7          72.15
    0.1153              -33.84          8.803          77.33          36.95         -7.621           17.0          154.5          74.62          52.06          110.7          72.14
    0.1217              -33.82          8.809          77.32          36.96         -7.626          16.99          154.5          74.61          51.94          110.6          72.14
    0.1281              -33.81          8.816          77.32          36.98          -7.63          16.97          154.5          74.61          51.81          110.6          72.14
    0.1345               -33.8          8.823          77.31          36.99         -7.636          16.96          154.5           74.6          51.66          110.6          72.14
    0.1409              -33.78          8.832           77.3          37.01         -7.642          16.95          154.5           74.6          51.49          110.5          72.14
    0.1473              -33.76          8.841           77.3          37.02         -7.648          16.93          154.5          74.59          51.31          110.4          72.13
    0.1537              -33.75          8.851          77.29          37.04         -7.656          16.92          154.6          74.58          51.11          110.4          72.13
    0.1601              -33.72          8.862          77.28          37.07         -7.664           16.9          154.6          74.57          50.89          110.3          72.13
    0.1665               -33.7          8.875          77.27          37.09         -7.673          16.88          154.6          74.56          50.64          110.2          72.13
    0.1729              -33.67           8.89          77.26          37.12         -7.683          16.85          154.6          74.55          50.36          110.1          72.12
    0.1793              -33.64          8.906          77.25          37.15         -7.695          16.83          154.6          74.54          50.04          110.0          72.12
    0.1857              -33.61          8.924          77.24          37.18         -7.708           16.8          154.6          74.53          49.68          109.9          72.11
    0.1921              -33.57          8.945          77.22          37.23         -7.723          16.76          154.6          74.51          49.26          109.8          72.11
    0.1985              -33.53           8.97           77.2          37.27          -7.74          16.72          154.7          74.49          48.79          109.6           72.1
    0.2049              -33.47          8.998          77.18          37.33          -7.76          16.67          154.7          74.47          48.24          109.4          72.09
    0.2113              -33.41           9.03          77.16          37.39         -7.784          16.62          154.7          74.45           47.6          109.2          72.09
    0.2177              -33.34          9.068          77.13          37.46         -7.811          16.56          154.8          74.42          46.86          109.0          72.08
    0.2241              -33.26          9.113           77.1          37.55         -7.843          16.49          154.8          74.38          45.98          108.7          72.06
    0.2305              -33.16          9.166          77.06          37.65         -7.881           16.4          154.9          74.34          44.94          108.3          72.05
    0.2369              -33.05           9.23          77.01          37.77         -7.926          16.29          154.9           74.3          43.69          107.9          72.03
    0.2433               -32.9          9.307          76.95          37.92         -7.981          16.17          155.0          74.24          42.18          107.4          72.01
    0.2497              -32.73          9.401          76.88           38.1         -8.049          16.01          155.1          74.17          40.33          106.8          71.99
    0.2561              -32.51          9.518           76.8          38.33         -8.132          15.82          155.2          74.08          38.05          106.1          71.96
    0.2625              -32.24          9.663          76.69          38.61         -8.236          15.58          155.3          73.97           35.2          105.2          71.92
    0.2689              -31.91          9.846          76.56          38.96         -8.366          15.28          155.5          73.83          31.62          104.0          71.87
    0.2754              -31.48          10.08          76.38           39.4         -8.532           14.9          155.7          73.66          27.07          102.5          71.81
    0.2818              -30.93          10.38          76.16          39.98         -8.745          14.41          156.0          73.44          21.24          100.6          71.74
    0.2882              -30.22          10.76          75.88          40.71         -9.017          13.78          156.4          73.15          13.76          98.13          71.64
    0.2946              -29.32          11.24          75.52          41.65         -9.366          12.98          156.9          72.78          4.206           95.0          71.51
     0.301              -28.19          11.86          75.07          42.83         -9.804          11.97          157.4          72.32         -7.807          91.07          71.35
    0.3074               -26.8           12.6          74.52          44.27         -10.34          10.74          158.2          71.76         -22.45          86.27          71.16
    0.3138               -25.2          13.47          73.88          45.93         -10.96          9.316          159.0          71.11         -39.42          80.71          70.93
    0.3202              -23.47          14.41          73.18          47.74         -11.63          7.773          159.9           70.4         -57.79          74.69          70.69
    0.3266              -21.73          15.35          72.49          49.54          -12.3           6.23          160.8           69.7         -76.16          68.67          70.45
     0.333              -20.13          16.21          71.85          51.21         -12.91          4.806          161.6          69.05         -93.13          63.11          70.22
    0.3394              -18.75          16.96           71.3          52.65         -13.45          3.577          162.4          68.49         -107.8          58.31          70.03
    0.3458              -17.62          17.57          70.85          53.83         -13.89          2.568          162.9          68.03         -119.8          54.37          69.87
    0.3522              -16.72          18.06          70.49          54.76         -14.23          1.766          163.4          67.66         -129.3          51.24          69.75
    0.3586              -16.01          18.44          70.21           55.5         -14.51          1.138          163.8          67.37         -136.8          48.79          69.65
     0.365              -15.46          18.74          69.99          56.07         -14.72         0.6486          164.1          67.15         -142.6          46.88          69.57
    0.3714              -15.03          18.97          69.81          56.52         -14.88         0.2663          164.3          66.97         -147.2          45.39          69.51
    0.3778              -14.69          19.15          69.68          56.87         -15.02       -0.03448          164.5          66.84         -150.8          44.22          69.46
    0.3842              -14.42           19.3          69.57          57.15         -15.12        -0.2732          164.6          66.73         -153.6          43.28          69.42
    0.3906              -14.21          19.41          69.49          57.37          -15.2        -0.4647          164.7          66.64         -155.9          42.54          69.39
     0.397              -14.03          19.51          69.42          57.55         -15.27        -0.6198          164.8          66.57         -157.8          41.93          69.37
    0.4034              -13.89          19.59          69.36           57.7         -15.32        -0.7468          164.9          66.51         -159.3          41.44          69.35
    0.4098              -13.77          19.65          69.31          57.83         -15.37        -0.8517          164.9          66.46         -160.5          41.03          69.33
